<?xml version="1.0" standalone="no"?>
<!DOCTYPE svg PUBLIC "-//W3C//DTD SVG 20010904//EN"
 "http://www.w3.org/TR/2001/REC-SVG-20010904/DTD/svg10.dtd">
<svg version="1.0" xmlns="http://www.w3.org/2000/svg"
 width="1016.000000pt" height="2032.000000pt" viewBox="0 0 1016.000000 2032.000000"
 preserveAspectRatio="xMidYMid meet">
<metadata>
Created by potrace 1.16, written by Peter Selinger 2001-2019
</metadata>
<g transform="translate(0.000000,2032.000000) scale(0.100000,-0.100000)"
fill="#000000" stroke="none">
<path d="M1455 20305 c-355 -41 -626 -151 -867 -352 -240 -200 -411 -499 -478
-835 -40 -204 -42 -245 -47 -889 l-5 -635 -29 -11 -29 -11 0 -379 c0 -394 1
-403 42 -403 17 0 18 -19 18 -325 l0 -324 -30 -16 -30 -16 0 -719 0 -719 27
-13 28 -13 3 -181 2 -181 -30 -13 -30 -12 0 -723 0 -723 30 -12 30 -12 0
-5577 c0 -3374 4 -5627 10 -5704 34 -464 177 -806 446 -1069 198 -195 426
-315 719 -382 231 -52 165 -50 1809 -53 1233 -3 1531 -1 1537 9 12 19 996 19
1008 0 6 -10 303 -12 1542 -9 1500 3 1537 4 1654 24 208 36 312 65 453 128
360 158 627 448 761 825 35 101 64 217 88 360 17 100 18 412 20 6021 l3 5916
25 11 25 12 0 1163 0 1164 -25 11 -24 11 -4 1613 c-3 1756 0 1660 -59 1912
-131 567 -543 969 -1121 1096 -234 52 -89 50 -3857 49 -2763 -1 -3528 -4
-3615 -14z m6566 -75 c4 -19 7 -29 8 -22 1 10 16 13 61 10 59 -3 60 -3 66 26
l6 29 197 -6 c419 -13 679 -67 879 -181 l54 -31 -56 -3 c-43 -2 -82 6 -169 33
-136 45 -260 70 -432 87 -190 19 -6908 19 -7100 0 -164 -16 -300 -44 -437 -88
-83 -27 -121 -34 -165 -32 l-58 3 117 58 c170 84 365 128 678 150 25 2 1463 3
3195 3 l3150 -1 6 -35z m-5488 -524 c57 -24 69 -46 78 -148 13 -129 24 -177
59 -251 58 -124 178 -224 325 -270 l70 -22 2020 0 c1932 0 2023 1 2080 18 126
39 216 100 286 192 61 80 87 157 104 302 16 137 24 155 82 179 41 18 776 20
970 3 237 -20 410 -82 557 -199 169 -134 273 -332 313 -598 17 -111 18 -524
18 -8747 0 -8181 -1 -8636 -18 -8745 -38 -253 -116 -412 -276 -562 -63 -59
-104 -87 -183 -127 -152 -74 -256 -98 -495 -111 -297 -17 -6928 -8 -7038 8
-169 26 -315 80 -432 160 -73 50 -186 170 -232 246 -45 75 -96 213 -118 317
-16 79 -17 569 -20 8759 -4 9500 -8 8808 53 8995 118 362 396 568 814 604 52
5 288 9 523 10 341 1 434 -2 460 -13z m-2124 -173 c-44 -77 -109 -237 -133
-329 -36 -141 -57 -305 -67 -534 -6 -156 -9 -3065 -7 -8690 4 -7827 5 -8464
21 -8575 33 -244 80 -408 158 -561 26 -52 46 -94 43 -94 -2 0 -10 13 -19 29
-8 16 -33 51 -55 76 -47 54 -117 190 -148 285 -58 178 -85 402 -80 655 l3 150
35 6 c19 4 29 7 22 8 -10 1 -13 16 -10 62 3 59 2 61 -25 66 l-27 6 0 8067 c0
7348 1 8068 16 8074 9 3 25 6 37 7 12 0 16 3 10 6 -8 3 -13 25 -13 58 0 33 5
55 13 58 6 3 1 6 -13 6 -54 2 -53 0 -47 252 6 254 14 320 53 479 41 164 145
380 203 423 9 7 27 27 40 45 37 52 32 37 -10 -35z m163 15 c-42 -61 -65 -111
-102 -213 -57 -164 -85 -316 -99 -555 -5 -74 -8 -3994 -7 -8710 2 -8003 3
-8583 19 -8697 31 -227 90 -432 154 -542 14 -24 20 -41 14 -37 -16 10 -80 129
-113 210 -37 90 -72 225 -95 363 -17 103 -18 528 -21 8678 -2 6044 0 8619 8
8735 18 276 68 474 164 655 41 78 92 155 103 155 2 0 -9 -19 -25 -42z m9230
-39 c103 -112 192 -344 229 -599 7 -48 13 -184 13 -310 l1 -225 -35 -6 c-19
-4 -28 -7 -20 -8 22 -2 23 -111 0 -112 -17 -1 -8 -4 33 -13 l27 -6 0 -8069 0
-8069 -24 -6 c-23 -6 -24 -10 -22 -66 2 -48 -1 -60 -14 -61 -8 -1 1 -4 20 -8
l35 -6 3 -145 c9 -411 -80 -780 -228 -945 -15 -16 -37 -47 -49 -67 -36 -61
-34 -43 4 25 84 152 143 355 172 592 17 133 18 587 18 8755 0 8168 -1 8622
-18 8755 -30 241 -83 424 -172 593 -25 48 -36 76 -26 62 11 -14 34 -41 53 -61z
m-181 25 c119 -173 192 -413 219 -714 14 -157 14 -17148 0 -17315 -21 -248
-62 -412 -145 -580 -30 -60 -64 -121 -75 -135 -11 -14 0 14 24 62 74 148 120
320 148 553 19 160 19 17357 0 17515 -30 248 -94 466 -177 603 -41 69 -38 75
6 11z m-9551 -2334 c0 -188 -4 -320 -9 -320 -41 0 -41 -1 -41 311 0 193 4 299
10 299 6 0 10 7 10 15 0 8 7 15 15 15 13 0 15 -42 15 -320z m14 -1161 c8 -41
8 -1257 0 -1297 -5 -25 -10 -29 -25 -23 -19 6 -19 28 -22 674 -2 696 -3 669
34 676 4 0 9 -13 13 -30z m10051 -497 c-3 -8 -5 -496 -5 -1087 0 -1052 0
-1073 -19 -1078 -12 -3 -22 1 -25 10 -8 19 -7 2142 0 2169 5 19 9 20 30 10 13
-6 22 -17 19 -24z m-10050 -1374 c8 -58 2 -1295 -7 -1303 -3 -4 -15 -4 -25 -1
-17 5 -18 36 -18 668 0 431 4 666 10 670 22 17 34 6 40 -34z m830 -13853 c260
-124 458 -162 890 -174 138 -3 1733 -4 3545 -1 3023 5 3303 7 3397 23 212 34
343 73 498 147 55 26 118 50 140 53 l40 6 -30 -25 c-162 -136 -342 -209 -625
-255 l-145 -24 -3235 0 -3235 0 -6 30 c-4 17 -7 24 -8 18 -1 -9 -19 -13 -56
-13 -37 0 -55 4 -56 13 0 6 -5 -3 -11 -22 l-9 -34 -242 6 c-492 11 -761 88
-992 281 l-30 25 40 -6 c22 -3 81 -25 130 -48z"/>
</g>
</svg>
