<svg id="Capa_1" enable-background="new 0 0 512 512" height="512" viewBox="0 0 512 512" width="512" xmlns="http://www.w3.org/2000/svg"><g><g><path d="m140.033 207.735h132.533v46.83h-132.533z" fill="#407093" transform="matrix(-1 0 0 -1 412.6 462.3)"/><path d="m27.508 264.283h59.383v33.133h-59.383z" fill="#407093" transform="matrix(-1 0 0 -1 114.4 561.7)"/><path d="m89.767 496.217h216.5c8.836 0 16-7.164 16-16v-216.5c0-8.837-7.164-16-16-16h-216.5c-8.837 0-16 7.163-16 16v33.7l15.233 74.55-15.233 74.55v33.7c0 8.836 7.163 16 16 16z" fill="#dd636e"/><path d="m140.033 440.402h49.7v55.815h-49.7z" fill="#365e7d"/><path d="m166.733 440.401h23v55.815h-23z" fill="#2b4d66"/><g><path d="m471.367 247.717-49.7 33.133-18.109 82.833 18.109 82.834 49.7 33.133 16.566-115.967z" fill="#407093"/></g><path d="m479.367 496.217h17.133c4.418 0 8-3.582 8-8v-249.067c0-4.418-3.582-8-8-8h-17.133c-4.418 0-8 3.582-8 8v249.067c0 4.418 3.581 8 8 8z" fill="#365e7d"/><g><path d="m312.009 280.85h109.658v165.667h-109.658z" fill="#365e7d" transform="matrix(-1 0 0 -1 733.676 727.367)"/><path d="m355.4 446.517h33.133v-25.634l-2-7.498 2-7.499v-18.144l-2-7.497 2-7.498v-18.128l-2-7.503 2-7.502v-18.131l-2-7.5 2-7.501v-25.632h-33.133v25.636l3 7.501-3 7.501v18.13l3 7.499-3 7.499v18.129l3 7.498-3 7.497v18.145l3 7.499-3 7.499z" fill="#2b4d66"/><g fill="#407093"><path d="m388.533 321.483v-15h-33.133v15z"/><path d="m388.533 354.617v-15h-33.133v15z"/><path d="m388.533 387.75v-15h-33.133v15z"/><path d="m388.533 420.883v-15h-33.133v15z"/></g></g><g><path d="m213.308 48.572 9.558 16.567h49.7l16.567 50.045v49.7c0 9.149-7.417 16.567-16.567 16.567h-185.075c-4.394 0-8.608-1.745-11.715-4.852l-7.585-7.585c-4.785-4.785-6.179-12.001-3.52-18.224l32.301-75.593c2.607-6.1 8.601-10.057 15.234-10.057h44.394l7.958-16.567-7.958-16.568h-55.33c-13.267 0-25.255 7.914-30.468 20.114l-41 95.952c-5.318 12.447-2.531 26.877 7.04 36.448l20.358 20.36c6.214 6.214 14.641 9.705 23.429 9.705h208.505c18.299 0 33.133-14.834 33.133-33.133v-67.923l-49.7-81.522h-49.7z" fill="#365e7d"/><path d="m156.6 32.005h66.267v33.133h-66.267z" fill="#407093"/><path d="m299.266 75.8v105.65c0 18.299-14.834 33.133-33.133 33.133h23c18.299 0 33.133-14.834 33.133-33.133v-67.923z" fill="#2b4d66"/></g><g><path d="m305.7 115.183 150.748-15.075c8.469-.847 14.918-7.973 14.918-16.485v-36.28c0-8.511-6.449-15.638-14.918-16.484l-150.748-15.076-6.808 49.7z" fill="#365e7d"/><path d="m288.567 15.783h17.133v99.4h-17.133c-8.837 0-16-7.163-16-16v-67.4c0-8.836 7.163-16 16-16z" fill="#407093"/><path d="m456.448 30.858-22.775-2.278c8.357.951 14.693 8.017 14.693 16.451v40.906c0 8.412-6.304 15.461-14.628 16.442l22.71-2.271c8.469-.847 14.918-7.973 14.918-16.484v-36.281c.001-8.511-6.449-15.638-14.918-16.485z" fill="#2b4d66"/><path d="m331.333 112.62 15-1.5v-91.274l-15-1.5z" fill="#365e7d"/></g><path d="m306.267 247.717h-23.375c8.837 0 16 7.163 16 16v216.5c0 8.837-7.163 16-16 16h23.375c8.836 0 16-7.163 16-16v-216.5c0-8.837-7.164-16-16-16z" fill="#da4a54"/><path d="m32.633 313.983h-17.133c-4.418 0-8-3.582-8-8v-50.267c0-4.418 3.582-8 8-8h17.133c4.418 0 8 3.582 8 8v50.267c0 4.419-3.581 8-8 8z" fill="#365e7d"/><path d="m73.767 446.517h199.367c8.837 0 16-7.163 16-16v-117.1c0-8.837-7.163-16-16-16h-199.367z" fill="#407093"/><path d="m214.3 380.25h33.7c4.418 0 8-3.582 8-8v-17.133c0-4.418-3.582-8-8-8h-33.7c-4.418 0-8 3.582-8 8v17.133c0 4.418 3.582 8 8 8z" fill="#f9f6f6"/><path d="m273.133 297.417h-23c8.837 0 16 7.163 16 16v117.1c0 8.836-7.163 16-16 16h23c8.837 0 16-7.164 16-16v-117.1c0-8.837-7.163-16-16-16z" fill="#365e7d"/><path d="m248 347.117h-22.858c4.418 0 8 3.582 8 8v17.133c0 4.418-3.582 8-8 8h22.858c4.418 0 8-3.582 8-8v-17.133c0-4.419-3.582-8-8-8z" fill="#dddaec"/></g><g><path d="m496.5 223.65h-17.133c-8.547 0-15.5 6.953-15.5 15.5v4.553l-44.471 29.647h-89.629v-9.633c0-12.958-10.542-23.5-23.5-23.5h-26.2v-18.133h9.066c22.405 0 40.633-18.228 40.633-40.633v-61.136l127.428-12.743c12.355-1.235 21.672-11.53 21.672-23.947v-36.282c0-12.417-9.317-22.712-21.672-23.947l-150.718-15.073c-.006-.001-.013-.001-.019-.002l-.011-.001c-.049-.005-.098-.003-.147-.007-.198-.016-.397-.03-.599-.03h-17.133c-10.418 0-19.269 6.817-22.341 16.222h-164.956c-16.295 0-30.962 9.683-37.366 24.668l-41 95.952c-6.559 15.35-3.17 32.895 8.633 44.698l20.359 20.359c7.675 7.675 17.878 11.901 28.732 11.901h51.904v18.133h-42.765c-10.545 0-19.49 6.982-22.455 16.566h-19.179v-1.066c0-8.547-6.953-15.5-15.5-15.5h-17.133c-8.547 0-15.5 6.953-15.5 15.5v50.267c0 8.547 6.953 15.5 15.5 15.5h17.133c8.547 0 15.5-6.953 15.5-15.5v-1.067h18.133v175.3c0 12.958 10.542 23.5 23.5 23.5h216.5c12.958 0 23.5-10.542 23.5-23.5v-26.2h89.629l44.471 29.647v4.553c0 8.547 6.953 15.5 15.5 15.5h17.134c8.547 0 15.5-6.953 15.5-15.5v-249.066c0-8.547-6.953-15.5-15.5-15.5zm-133.6 130.967h18.133v18.133h-18.133zm18.133-15h-18.133v-18.133h18.133zm-18.133 48.133h18.133v18.133h-18.133zm33.133-99.4h18.133v150.667h-18.133zm-15 0v18.133h-18.133v-18.133zm-67.833-264.279 18.133 1.813v79.198l-9.833.983h-.001l-8.299.83zm150.667 23.272v36.281c0 4.678-3.51 8.556-8.165 9.022l-109.369 10.937v-76.199l109.369 10.937c4.655.466 8.165 4.344 8.165 9.022zm-183.8-15.56c0-4.687 3.813-8.5 8.5-8.5h9.633v84.4h-9.633c-4.687 0-8.5-3.813-8.5-8.5zm-15 25.856h-34.7v-18.134h34.7zm-49.7 0h-51.267v-18.134h51.267zm49.7 15v26.544c0 10.545 6.982 19.49 16.566 22.455v43.245c0 4.999-4.067 9.067-9.066 9.067h-185.076c-2.422 0-4.699-.943-6.411-2.656l-7.586-7.585c-2.633-2.634-3.39-6.548-1.926-9.974l32.301-75.593c1.428-3.343 4.701-5.504 8.337-5.504h152.861zm-202.564 126.937-20.359-20.359c-7.446-7.446-9.584-18.515-5.446-28.198l41-95.952c4.04-9.453 13.292-15.562 23.572-15.562h47.83v18.133h-36.894c-9.651 0-18.338 5.735-22.131 14.61l-32.301 75.593c-3.885 9.091-1.877 19.483 5.113 26.474l7.585 7.585c4.546 4.546 10.589 7.049 17.018 7.049h185.076c13.27 0 24.066-10.796 24.066-24.067v-42.2s9.088-.002 9.099-.002c.238-.001.476-.012.714-.036l.011-.001c.006-.001.013-.001.019-.002l8.29-.829v59.636c0 14.134-11.499 25.633-25.633 25.633h-208.503c-6.847.003-13.284-2.664-18.126-7.505zm85.03 22.508h117.534v18.133h-117.534zm34.7 231.933v34.7h-34.7v-34.7zm-100.966-15v-134.1h191.867c4.687 0 8.5 3.813 8.5 8.5v117.1c0 4.687-3.813 8.5-8.5 8.5zm-48.134-133.034c0 .276-.224.5-.5.5h-17.133c-.276 0-.5-.224-.5-.5v-50.267c0-.276.224-.5.5-.5h17.133c.276 0 .5.224.5.5zm15-34.2h18.133v18.133h-18.133zm33.134 208.434v-26.2h51.267v34.7h-42.767c-4.687 0-8.5-3.813-8.5-8.5zm233.5 0c0 4.687-3.813 8.5-8.5 8.5h-109.034v-34.7h75.9c12.958 0 23.5-10.542 23.5-23.5v-117.1c0-12.958-10.542-23.5-23.5-23.5h-191.866v-25.633-.566c0-4.687 3.813-8.5 8.5-8.5h216.5c4.687 0 8.5 3.813 8.5 8.5v17.133 165.667zm15-191.867h18.133v150.667h-18.133zm33.133 150.667v-18.133h18.133v18.133zm66.266 3.486v-157.639l34.7-23.133v203.906zm67.834 45.714c0 .276-.224.5-.5.5h-17.133c-.276 0-.5-.224-.5-.5v-249.067c0-.276.224-.5.5-.5h17.133c.276 0 .5.224.5.5z"/><path d="m248 339.617h-33.7c-8.547 0-15.5 6.953-15.5 15.5v17.133c0 8.547 6.953 15.5 15.5 15.5h33.7c8.547 0 15.5-6.953 15.5-15.5v-17.133c0-8.547-6.953-15.5-15.5-15.5zm.5 32.633c0 .276-.224.5-.5.5h-33.7c-.276 0-.5-.224-.5-.5v-17.133c0-.276.224-.5.5-.5h33.7c.276 0 .5.224.5.5z"/></g></g></svg>