<svg id="Layer_1" enable-background="new 0 0 512 512" height="512" viewBox="0 0 512 512" width="512" xmlns="http://www.w3.org/2000/svg"><path d="m349.269 66.2v-55.898c0-5.666-4.641-10.302-10.313-10.302h-279.539c-5.672 0-10.313 4.636-10.313 10.302v55.898z" fill="#8c9ba7"/><path d="m49.104 448.89v52.808c0 5.666 4.641 10.302 10.313 10.302h279.54c5.672 0 10.313-4.636 10.313-10.302v-52.808z" fill="#8c9ba7"/><path d="m81.654 66.2v-55.898c0-5.666 4.641-10.302 10.313-10.302h-32.55c-5.672 0-10.313 4.636-10.313 10.302v55.898z" fill="#798b97"/><path d="m81.654 501.698v-52.808h-32.55v52.808c0 5.666 4.641 10.302 10.313 10.302h32.551c-5.673 0-10.314-4.636-10.314-10.302z" fill="#798b97"/><path d="m291.354 355.332-49.406 48.834c-1.481 1.465-2.904 2.271-4.007 2.271-2.303 0-2.482-3.761-2.482-4.914v-46.191h-39.032c-5.836 0-10.584-4.688-10.584-10.452v-163.761c0-5.763 4.748-10.452 10.584-10.452h152.841v-105.467h-300.164v384.69h300.166v-94.558z" fill="#c7eefd"/><path d="m49.104 65.2h32.551v384.69h-32.551z" fill="#98e5fb"/><path d="m184.844 181.119c0-6.298 5.212-11.452 11.584-11.452h113.211v-40.544c0-2.833-2.32-5.151-5.157-5.151h-210.592c-2.836 0-5.157 2.318-5.157 5.151v135.119c0 2.833 2.32 5.151 5.157 5.151h90.954z" fill="#62dafa"/><g fill="#01cffa"><path d="m120.898 264.241v-135.119c0-2.833 2.32-5.151 5.157-5.151h-32.165c-2.836 0-5.157 2.318-5.157 5.151v135.119c0 2.833 2.32 5.151 5.157 5.151h32.165c-2.836.001-5.157-2.318-5.157-5.151z"/><path d="m184.844 303.282h-88.61c-4.142 0-7.5 3.358-7.5 7.5s3.358 7.5 7.5 7.5h88.61z"/><path d="m184.844 344.88v-3.548h-88.61c-4.142 0-7.5 3.358-7.5 7.5s3.358 7.5 7.5 7.5h100.194c-6.372 0-11.584-5.153-11.584-11.452z"/><path d="m173.388 394.723h-77.155c-4.142 0-7.5-3.358-7.5-7.5s3.358-7.5 7.5-7.5h77.155c4.142 0 7.5 3.358 7.5 7.5s-3.358 7.5-7.5 7.5z"/></g><path d="m451.31 169.667h-254.882c-6.372 0-11.584 5.154-11.584 11.452v163.761c0 6.299 5.212 11.452 11.584 11.452h38.032v45.191c0 6.299 3.687 7.808 8.192 3.354l49.113-48.545h159.545c6.372 0 11.586-5.153 11.586-11.452v-163.761c0-6.299-5.213-11.452-11.586-11.452z" fill="#d73131"/><path d="m217.211 344.88v-163.761c0-6.298 5.212-11.452 11.584-11.452h-32.368c-6.372 0-11.584 5.154-11.584 11.452v163.761c0 6.299 5.212 11.452 11.584 11.452h32.368c-6.372 0-11.584-5.153-11.584-11.452z" fill="#a62b2b"/><path d="m229.333 38.653h-60.293c-4.142 0-7.5-3.358-7.5-7.5s3.358-7.5 7.5-7.5h60.293c4.142 0 7.5 3.358 7.5 7.5s-3.358 7.5-7.5 7.5z" fill="#374949"/><path d="m214.26 486.993h-30.147c-4.142 0-7.5-3.358-7.5-7.5s3.358-7.5 7.5-7.5h30.147c4.142 0 7.5 3.358 7.5 7.5s-3.358 7.5-7.5 7.5z" fill="#b5c3ce"/><path d="m283.315 222.42c0-5.666 4.03-8.002 8.955-5.191l71.249 40.66c4.925 2.81 4.925 7.41 0 10.221l-71.249 40.66c-4.925 2.811-8.955.475-8.955-5.191z" fill="#fff"/><path d="m315.454 230.459-23.185-13.23c-4.925-2.811-8.955-.475-8.955 5.191v81.158c0 5.666 4.03 8.002 8.955 5.191l23.185-13.231z" fill="#dff6fd"/><circle cx="261.58" cy="30.9" fill="#374949" r="7.5"/><circle cx="136.792" cy="30.9" fill="#374949" r="7.5"/></svg>